<?xml version="1.0" encoding="UTF-8" standalone="no"?>
<svg width="255px" height="46px" viewBox="0 0 255 46" version="1.1" xmlns="http://www.w3.org/2000/svg" xmlns:xlink="http://www.w3.org/1999/xlink" xmlns:sketch="http://www.bohemiancoding.com/sketch/ns">
    <!-- Generator: Sketch 3.5.1 (25234) - http://www.bohemiancoding.com/sketch -->
    <title>logo-bettween</title>
    <desc>Created with Sketch.</desc>
    <defs>
        <path id="path-1" d="M0,0.0838289474 L254.774329,0.0838289474 L254.774329,46 L0,46 L0,0.0838289474 Z"></path>
        <path id="path-3" d="M0,0.0838289474 L254.774329,0.0838289474 L254.774329,46 L0,46 L0,0.0838289474 Z"></path>
        <path id="path-5" d="M0,0.0838289474 L254.774329,0.0838289474 L254.774329,46 L0,46 L0,0.0838289474 Z"></path>
        <path id="path-7" d="M0,0.0838289474 L254.774329,0.0838289474 L254.774329,46 L0,46 L0,0.0838289474 Z"></path>
        <path id="path-9" d="M0,0.0838289474 L254.774329,0.0838289474 L254.774329,46 L0,46 L0,0.0838289474 Z"></path>
        <path id="path-11" d="M0,0.0838289474 L254.774329,0.0838289474 L254.774329,46 L0,46"></path>
        <path id="path-13" d="M0,0.0838289474 L254.774329,0.0838289474 L254.774329,46 L0,46"></path>
    </defs>
    <g id="Page-1" stroke="none" stroke-width="1" fill="none" fill-rule="evenodd" sketch:type="MSPage">
        <g id="logo-bettween" sketch:type="MSArtboardGroup">
            <g sketch:type="MSLayerGroup">
                <g id="Group-3">
                    <mask id="mask-2" sketch:name="Clip 2" fill="white">
                        <use xlink:href="#path-1"></use>
                    </mask>
                    <g id="Clip-2"></g>
                    <path d="M16.8185079,37.0705829 C20.9161395,37.0705829 23.7294026,34.0127934 23.7294026,29.2424118 C23.7294026,24.5331618 20.9772711,21.291675 16.8185079,21.291675 C12.7820079,21.291675 9.90761316,24.1660697 9.90761316,29.2424118 C9.90761316,33.5234382 12.4149158,37.0705829 16.8185079,37.0705829 L16.8185079,37.0705829 Z M9.54052105,45.2050171 L6.05263158e-05,45.2050171 L6.05263158e-05,0.987819737 L10.2135737,0.987819737 L10.2135737,15.5428855 C10.8860211,14.7478724 13.8829816,12.3020039 18.7756263,12.3020039 C28.0715605,12.3020039 33.9426132,19.2128987 33.9426132,29.1815829 C33.9426132,39.0277013 27.4599421,46.0000303 18.2248368,46.0000303 C13.5158895,46.0000303 10.4577974,43.7366487 9.54052105,42.6977145 L9.54052105,45.2050171 Z" id="Fill-1" fill="#FFFFFF" sketch:type="MSShapeGroup" mask="url(#mask-2)"></path>
                </g>
                <g id="Group-6">
                    <mask id="mask-4" sketch:name="Clip 5" fill="white">
                        <use xlink:href="#path-3"></use>
                    </mask>
                    <g id="Clip-5"></g>
                    <path d="M46.4905961,25.3282658 L56.8872013,25.3282658 C56.7649382,22.7601342 54.8692539,20.5581868 51.6888987,20.5581868 C48.3251487,20.5581868 46.7351224,23.0654895 46.4905961,25.3282658 L46.4905961,25.3282658 Z M46.1846355,31.8112395 C46.4294645,34.6856342 49.1815961,37.1321079 52.9732671,37.1321079 C56.8260697,37.1321079 59.0891487,34.6248053 59.7004645,33.7072263 L66.4279645,38.9052263 C65.5106882,40.8015158 61.1073987,46.0001211 52.7895697,46.0001211 C42.2095697,46.0001211 35.7268987,38.7221342 35.7268987,29.2425026 C35.7268987,19.8243053 42.0870039,12.3020947 51.5055039,12.3020947 C61.7187145,12.3020947 67.2841092,18.8458974 67.2841092,29.7932921 C67.2841092,30.4043053 67.2841092,31.0770553 67.2229776,31.8112395 L46.1846355,31.8112395 Z" id="Fill-4" fill="#FFFFFF" sketch:type="MSShapeGroup" mask="url(#mask-4)"></path>
                </g>
                <path d="M131.575586,27.0411908 L126.988901,45.2051382 L115.49102,45.2051382 L106.501046,13.1737039 L117.631533,13.1582697 L121.973691,34.0737434 L126.805204,13.1431382 L136.345967,13.1277039 L141.17748,34.0737434 L145.519638,13.1122697 L156.650125,13.0971382 L147.660151,45.2051382 L136.16227,45.2051382 L131.575586,27.0411908 Z" id="Fill-7" fill="#FFFFFF" sketch:type="MSShapeGroup"></path>
                <g id="Group-11">
                    <mask id="mask-6" sketch:name="Clip 10" fill="white">
                        <use xlink:href="#path-5"></use>
                    </mask>
                    <g id="Clip-10"></g>
                    <path d="M166.768037,25.3282658 L177.164642,25.3282658 C177.042379,22.7601342 175.146695,20.5581868 171.966339,20.5581868 C168.602589,20.5581868 167.012563,23.0654895 166.768037,25.3282658 L166.768037,25.3282658 Z M166.462076,31.8112395 C166.706905,34.6856342 169.459037,37.1321079 173.250708,37.1321079 C177.103511,37.1321079 179.366589,34.6248053 179.977905,33.7072263 L186.705405,38.9052263 C185.788129,40.8015158 181.384839,46.0001211 173.067011,46.0001211 C162.487011,46.0001211 156.004339,38.7221342 156.004339,29.2425026 C156.004339,19.8243053 162.364445,12.3020947 171.782642,12.3020947 C181.996155,12.3020947 187.56155,18.8458974 187.56155,29.7932921 C187.56155,30.4043053 187.56155,31.0770553 187.500418,31.8112395 L166.462076,31.8112395 Z" id="Fill-9" fill="#FFFFFF" sketch:type="MSShapeGroup" mask="url(#mask-6)"></path>
                </g>
                <g id="Group-14">
                    <mask id="mask-8" sketch:name="Clip 13" fill="white">
                        <use xlink:href="#path-7"></use>
                    </mask>
                    <g id="Clip-13"></g>
                    <path d="M200.833004,25.3282658 L211.229609,25.3282658 C211.107346,22.7601342 209.211662,20.5581868 206.031307,20.5581868 C202.667557,20.5581868 201.07753,23.0654895 200.833004,25.3282658 L200.833004,25.3282658 Z M200.527043,31.8112395 C200.771872,34.6856342 203.524004,37.1321079 207.315675,37.1321079 C211.168478,37.1321079 213.431557,34.6248053 214.042872,33.7072263 L220.770372,38.9052263 C219.853096,40.8015158 215.449807,46.0001211 207.131978,46.0001211 C196.551978,46.0001211 190.069307,38.7221342 190.069307,29.2425026 C190.069307,19.8243053 196.429412,12.3020947 205.847609,12.3020947 C216.061122,12.3020947 221.626517,18.8458974 221.626517,29.7932921 C221.626517,30.4043053 221.626517,31.0770553 221.565386,31.8112395 L200.527043,31.8112395 Z" id="Fill-12" fill="#FFFFFF" sketch:type="MSShapeGroup" mask="url(#mask-8)"></path>
                </g>
                <g id="Group-17">
                    <mask id="mask-10" sketch:name="Clip 16" fill="white">
                        <use xlink:href="#path-9"></use>
                    </mask>
                    <g id="Clip-16"></g>
                    <path d="M244.561179,26.0623592 C244.561179,23.0657013 242.787758,21.475675 240.341284,21.475675 C237.528021,21.475675 235.937995,23.4936224 235.937995,26.0623592 L235.937995,45.2050171 L225.724482,45.2050171 L225.724482,13.0970171 L235.693166,13.0970171 L235.693166,16.3993329 C236.916403,14.5033461 239.729666,12.3020039 243.766166,12.3020039 C253.795982,12.3020039 254.774389,20.8637539 254.774389,27.4075566 L254.774389,45.2050171 L244.561179,45.2050171 L244.561179,26.0623592 Z" id="Fill-15" fill="#FFFFFF" sketch:type="MSShapeGroup" mask="url(#mask-10)"></path>
                </g>
                <g id="Group-20">
                    <mask id="mask-12" sketch:name="Clip 19" fill="white">
                        <use xlink:href="#path-11"></use>
                    </mask>
                    <g id="Clip-19"></g>
                    <path d="M83.7473579,5.00700921 C83.7473579,7.72585132 81.5432921,9.93021974 78.8241474,9.93021974 C76.1053053,9.93021974 73.9012395,7.72585132 73.9012395,5.00700921 C73.9012395,2.28816711 76.1053053,0.0837986842 78.8241474,0.0837986842 C81.5432921,0.0837986842 83.7473579,2.28816711 83.7473579,5.00700921" id="Fill-18" fill="#FFFFFF" sketch:type="MSShapeGroup" mask="url(#mask-12)"></path>
                </g>
                <g id="Group-23">
                    <mask id="mask-14" sketch:name="Clip 22" fill="white">
                        <use xlink:href="#path-13"></use>
                    </mask>
                    <g id="Clip-22"></g>
                    <path d="M98.5006474,5.00700921 C98.5006474,7.72585132 96.2965816,9.93021974 93.5774368,9.93021974 C90.8585947,9.93021974 88.6545289,7.72585132 88.6545289,5.00700921 C88.6545289,2.28816711 90.8585947,0.0837986842 93.5774368,0.0837986842 C96.2965816,0.0837986842 98.5006474,2.28816711 98.5006474,5.00700921" id="Fill-21" fill="#FFFFFF" sketch:type="MSShapeGroup" mask="url(#mask-14)"></path>
                </g>
                <path d="M104.416187,13.2043605 L68.7056605,13.1889263 L68.7056605,21.3754132 L73.8503974,21.3754132 L73.8503974,45.5859395 L84.1398711,45.5859395 L84.1398711,21.3754132 L88.6793447,21.3754132 L88.6793447,45.5859395 L98.9688184,45.5859395 L98.9688184,21.3754132 L104.416187,21.3754132 L104.416187,13.2043605 Z" id="Fill-24" fill="#FFFFFF" sketch:type="MSShapeGroup"></path>
            </g>
        </g>
    </g>
</svg>