<?xml version="1.0" encoding="UTF-8" standalone="no"?>
<svg width="356px" height="70px" viewBox="0 0 356 70" version="1.1" xmlns="http://www.w3.org/2000/svg" xmlns:xlink="http://www.w3.org/1999/xlink" xmlns:sketch="http://www.bohemiancoding.com/sketch/ns">
    <!-- Generator: Sketch 3.5.1 (25234) - http://www.bohemiancoding.com/sketch -->
    <title>logo-constitucional</title>
    <desc>Created with Sketch.</desc>
    <defs></defs>
    <g id="Page-1" stroke="none" stroke-width="1" fill="none" fill-rule="evenodd" sketch:type="MSPage">
        <g id="logo-constitucional" sketch:type="MSArtboardGroup" fill="#FFFFFF">
            <g id="logo-constitucional-full" sketch:type="MSLayerGroup">
                <path d="M45.1617647,51.9558824 C41.6911765,54.0147059 37.5147059,55.1323529 33.1617647,54.7794118 C24.0441176,54.0147059 16.4558824,46.6029412 15.4558824,37.4264706 C14.1617647,25.5441176 23.3382353,15.5441176 34.9264706,15.5441176 C38.5735294,15.5441176 42.0441176,16.5441176 44.9852941,18.3676471 C47.3382353,19.7794118 50.3970588,19.3088235 52.3382353,17.3676471 L53.75,15.9558824 C57.0441176,12.6617647 55.5735294,6.77941176 50.9264706,5.72058824 L50.8676471,5.72058824 L50.75,5.72058824 C48.5735294,5.30882353 46.5147059,4.42647059 44.6911765,3.19117647 L44.5735294,3.13235294 C41.6911765,1.19117647 38.3382353,0.25 34.9852941,0.25 C31.6323529,0.25 28.2794118,1.19117647 25.3970588,3.13235294 L25.1617647,3.25 C23.2794118,4.48529412 21.2794118,5.30882353 19.1029412,5.77941176 L18.9852941,5.77941176 C12.1617647,7.19117647 6.80882353,12.5441176 5.45588235,19.3088235 L5.45588235,19.4264706 C5.04411765,21.6029412 4.16176471,23.6617647 2.92647059,25.4852941 L2.86764706,25.6029412 C-0.955882353,31.4264706 -0.955882353,38.8970588 2.86764706,44.7205882 L2.86764706,44.8382353 C4.10294118,46.7205882 4.92647059,48.7205882 5.39705882,50.8970588 L5.39705882,51.0147059 C6.80882353,57.8382353 12.1617647,63.1911765 18.9264706,64.5441176 L19.0441176,64.5441176 C21.2205882,64.9558824 23.2794118,65.8382353 25.1029412,67.0735294 L25.2205882,67.1323529 C31.0441176,70.9558824 38.5735294,70.9558824 44.3382353,67.1323529 L44.4558824,67.0735294 C46.3382353,65.8382353 48.3382353,65.0147059 50.5147059,64.5441176 L50.6323529,64.5441176 C50.75,64.5441176 50.9264706,64.4852941 50.9852941,64.4852941 C55.6323529,63.4264706 57.1617647,57.6029412 53.8088235,54.1911765 L52.3970588,52.7794118 C50.6911765,50.8970588 47.6323529,50.5441176 45.1617647,51.9558824" id="Fill-1" sketch:type="MSShapeGroup"></path>
                <path d="M34.9852941,26.25 C39.9235294,26.25 43.9264706,30.2529412 43.9264706,35.1911765 C43.9264706,40.1294118 39.9235294,44.1323529 34.9852941,44.1323529 C30.0470588,44.1323529 26.0441176,40.1294118 26.0441176,35.1911765 C26.0441176,30.2529412 30.0470588,26.25 34.9852941,26.25" id="Fill-3" sketch:type="MSShapeGroup"></path>
                <path d="M81.3970588,23.7794118 C84.5147059,23.7794118 86.8088235,24.7205882 88.9264706,26.6617647 C89.2205882,26.8970588 89.2205882,27.3088235 88.9852941,27.5441176 L86.5735294,30.0735294 C86.3382353,30.3088235 86.0441176,30.3088235 85.8088235,30.0735294 C84.6911765,29.0735294 83.1617647,28.4852941 81.6323529,28.4852941 C78.1029412,28.4852941 75.5735294,31.4264706 75.5735294,34.8970588 C75.5735294,38.3676471 78.1617647,41.1911765 81.6911765,41.1911765 C83.1617647,41.1911765 84.75,40.6617647 85.8676471,39.7205882 C86.1029412,39.5441176 86.5147059,39.5441176 86.6911765,39.7794118 L89.1029412,42.3676471 C89.3382353,42.6029412 89.2794118,43.0147059 89.0441176,43.1911765 C86.9264706,45.25 84.2794118,46.1911765 81.5147059,46.1911765 C75.3382353,46.1911765 70.3382353,41.25 70.3382353,35.0735294 C70.3382353,28.8970588 75.1617647,23.7794118 81.3970588,23.7794118" id="Fill-5" sketch:type="MSShapeGroup"></path>
                <path d="M103.632353,41.1323529 C107.044118,41.1323529 109.808824,38.3676471 109.808824,34.9558824 C109.808824,31.5441176 107.044118,28.7205882 103.632353,28.7205882 C100.279412,28.7205882 97.4558824,31.5441176 97.4558824,34.9558824 C97.4558824,38.3676471 100.279412,41.1323529 103.632353,41.1323529 M103.632353,23.7794118 C109.808824,23.7794118 114.808824,28.7794118 114.808824,34.9558824 C114.808824,41.1323529 109.867647,46.0735294 103.632353,46.0735294 C97.4558824,46.0735294 92.5147059,41.1323529 92.5147059,34.9558824 C92.5147059,28.7794118 97.4558824,23.7794118 103.632353,23.7794118" id="Fill-7" sketch:type="MSShapeGroup"></path>
                <path d="M120.102941,24.3088235 C120.102941,24.0147059 120.397059,23.7794118 120.691176,23.7794118 L121.455882,23.7794118 L133.808824,35.6617647 L133.867647,35.6617647 L133.867647,24.6617647 C133.867647,24.3676471 134.102941,24.0735294 134.455882,24.0735294 L138.161765,24.0735294 C138.455882,24.0735294 138.75,24.3676471 138.75,24.6617647 L138.75,45.5441176 C138.75,45.8382353 138.455882,46.0735294 138.161765,46.0735294 L137.691176,46.0735294 C137.573529,46.0735294 137.338235,45.9558824 137.279412,45.8970588 L125.044118,33.6029412 L124.985294,33.6029412 L124.985294,45.1911765 C124.985294,45.4852941 124.75,45.7794118 124.397059,45.7794118 L120.691176,45.7794118 C120.397059,45.7794118 120.102941,45.4852941 120.102941,45.1911765 L120.102941,24.3088235 Z" id="Fill-9" sketch:type="MSShapeGroup"></path>
                <path d="M144.397059,42.8382353 L145.867647,40.25 C146.102941,39.8382353 146.691176,39.8970588 146.926471,40.0735294 C147.044118,40.1323529 149.279412,41.7794118 151.338235,41.7794118 C152.573529,41.7794118 153.455882,41.0147059 153.455882,39.8970588 C153.455882,38.6029412 152.397059,37.6029412 150.279412,36.7794118 C147.632353,35.7205882 144.279412,33.6617647 144.279412,29.9558824 C144.279412,26.8970588 146.691176,23.7794118 151.455882,23.7794118 C154.691176,23.7794118 157.161765,25.4264706 158.102941,26.1323529 C158.455882,26.3676471 158.397059,26.8970588 158.279412,27.1323529 L156.691176,29.5441176 C156.455882,29.8970588 155.926471,30.1911765 155.632353,29.9558824 C155.338235,29.7794118 153.102941,28.0735294 151.220588,28.0735294 C150.102941,28.0735294 149.279412,28.8382353 149.279412,29.6617647 C149.279412,30.8382353 150.220588,31.6617647 152.632353,32.6617647 C155.044118,33.6029412 158.867647,35.4852941 158.867647,39.7205882 C158.867647,42.8970588 156.102941,46.1323529 151.573529,46.1323529 C147.514706,46.1323529 145.338235,44.4852941 144.573529,43.7205882 C144.220588,43.4264706 144.102941,43.25 144.397059,42.8382353" id="Fill-11" sketch:type="MSShapeGroup"></path>
                <path d="M166.926471,28.6617647 L162.514706,28.6617647 C162.161765,28.6617647 161.926471,28.3676471 161.926471,28.0735294 L161.926471,24.7205882 C161.926471,24.4264706 162.161765,24.1323529 162.514706,24.1323529 L176.279412,24.1323529 C176.632353,24.1323529 176.867647,24.4264706 176.867647,24.7205882 L176.867647,28.0735294 C176.867647,28.3676471 176.632353,28.6617647 176.279412,28.6617647 L171.867647,28.6617647 L171.867647,45.1911765 C171.867647,45.4852941 171.573529,45.7794118 171.279412,45.7794118 L167.514706,45.7794118 C167.220588,45.7794118 166.926471,45.4852941 166.926471,45.1911765 L166.926471,28.6617647 Z" id="Fill-13" sketch:type="MSShapeGroup"></path>
                <path d="M181.514706,24.6617647 C181.514706,24.3676471 181.808824,24.0735294 182.102941,24.0735294 L185.808824,24.0735294 C186.102941,24.0735294 186.397059,24.3676471 186.397059,24.6617647 L186.397059,45.1911765 C186.397059,45.4852941 186.102941,45.7794118 185.808824,45.7794118 L182.102941,45.7794118 C181.808824,45.7794118 181.514706,45.4852941 181.514706,45.1911765 L181.514706,24.6617647 Z" id="Fill-15" sketch:type="MSShapeGroup"></path>
                <path d="M196.102941,28.6617647 L191.632353,28.6617647 C191.279412,28.6617647 191.044118,28.3676471 191.044118,28.0735294 L191.044118,24.7205882 C191.044118,24.4264706 191.279412,24.1323529 191.632353,24.1323529 L205.397059,24.1323529 C205.75,24.1323529 205.985294,24.4264706 205.985294,24.7205882 L205.985294,28.0735294 C205.985294,28.3676471 205.75,28.6617647 205.397059,28.6617647 L200.985294,28.6617647 L200.985294,45.1911765 C200.985294,45.4852941 200.691176,45.7794118 200.397059,45.7794118 L196.691176,45.7794118 C196.397059,45.7794118 196.102941,45.4852941 196.102941,45.1911765 L196.102941,28.6617647 Z" id="Fill-17" sketch:type="MSShapeGroup"></path>
                <path d="M210.338235,24.6617647 C210.338235,24.3676471 210.632353,24.0735294 210.926471,24.0735294 L214.75,24.0735294 C215.102941,24.0735294 215.338235,24.3676471 215.338235,24.6617647 L215.338235,37.1911765 C215.338235,39.3676471 216.926471,41.0735294 219.161765,41.0735294 C221.397059,41.0735294 223.044118,39.3088235 223.044118,37.1911765 L223.044118,24.6617647 C223.044118,24.3676471 223.279412,24.0735294 223.632353,24.0735294 L227.455882,24.0735294 C227.75,24.0735294 228.044118,24.3676471 228.044118,24.6617647 L228.044118,37.4852941 C228.044118,42.1911765 224.102941,46.1323529 219.161765,46.1323529 C214.279412,46.1323529 210.338235,42.25 210.338235,37.4852941 L210.338235,24.6617647 Z" id="Fill-19" sketch:type="MSShapeGroup"></path>
                <path d="M244.161765,23.7794118 C247.279412,23.7794118 249.573529,24.7205882 251.691176,26.6617647 C251.985294,26.8970588 251.985294,27.3088235 251.75,27.5441176 L249.338235,30.0735294 C249.102941,30.3088235 248.808824,30.3088235 248.573529,30.0735294 C247.397059,29.0735294 245.926471,28.4852941 244.397059,28.4852941 C240.867647,28.4852941 238.338235,31.4264706 238.338235,34.8970588 C238.338235,38.3676471 240.926471,41.1911765 244.455882,41.1911765 C245.926471,41.1911765 247.514706,40.6617647 248.632353,39.7205882 C248.867647,39.5441176 249.279412,39.5441176 249.455882,39.7794118 L251.867647,42.3676471 C252.102941,42.6029412 252.044118,43.0147059 251.808824,43.1911765 C249.691176,45.25 247.044118,46.1911765 244.279412,46.1911765 C238.102941,46.1911765 233.102941,41.25 233.102941,35.0735294 C233.102941,28.8970588 237.985294,23.7794118 244.161765,23.7794118" id="Fill-21" sketch:type="MSShapeGroup"></path>
                <path d="M256.985294,24.6617647 C256.985294,24.3676471 257.279412,24.0735294 257.573529,24.0735294 L261.279412,24.0735294 C261.573529,24.0735294 261.867647,24.3676471 261.867647,24.6617647 L261.867647,45.1911765 C261.867647,45.4852941 261.573529,45.7794118 261.279412,45.7794118 L257.573529,45.7794118 C257.279412,45.7794118 256.985294,45.4852941 256.985294,45.1911765 L256.985294,24.6617647 Z" id="Fill-23" sketch:type="MSShapeGroup"></path>
                <path d="M351.102941,22.6029412 C351.102941,22.3088235 351.338235,22.0735294 351.632353,22.0735294 L355.044118,22.0735294 C355.338235,22.0735294 355.573529,22.3088235 355.573529,22.6029412 L355.573529,45.25 C355.573529,45.5441176 355.338235,45.7794118 355.044118,45.7794118 L351.632353,45.7794118 C351.338235,45.7794118 351.102941,45.5441176 351.102941,45.25 L351.102941,22.6029412 Z" id="Fill-25" sketch:type="MSShapeGroup"></path>
                <path d="M321.867647,18.1911765 C321.867647,17.8970588 322.161765,17.6029412 322.455882,17.6029412 L323.220588,17.6029412 C323.514706,17.6029412 323.808824,17.8970588 323.808824,18.1911765 L323.808824,50.4852941 C323.808824,50.7794118 323.514706,51.0735294 323.220588,51.0735294 L322.455882,51.0735294 C322.161765,51.0735294 321.867647,50.7794118 321.867647,50.4852941 L321.867647,18.1911765 Z" id="Fill-27" sketch:type="MSShapeGroup"></path>
                <path d="M278.220588,41.1323529 C281.632353,41.1323529 284.397059,38.3676471 284.397059,34.9558824 C284.397059,31.5441176 281.632353,28.7205882 278.220588,28.7205882 C274.867647,28.7205882 272.044118,31.5441176 272.044118,34.9558824 C272.044118,38.3676471 274.808824,41.1323529 278.220588,41.1323529 M278.220588,23.7794118 C284.397059,23.7794118 289.397059,28.7794118 289.397059,34.9558824 C289.397059,41.1323529 284.455882,46.0735294 278.220588,46.0735294 C272.044118,46.0735294 267.102941,41.1323529 267.102941,34.9558824 C267.102941,28.7794118 271.985294,23.7794118 278.220588,23.7794118" id="Fill-29" sketch:type="MSShapeGroup"></path>
                <path d="M294.75,24.3088235 C294.75,24.0147059 295.044118,23.7794118 295.338235,23.7794118 L296.102941,23.7794118 L308.455882,35.6617647 L308.514706,35.6617647 L308.514706,24.6617647 C308.514706,24.3676471 308.75,24.0735294 309.102941,24.0735294 L312.808824,24.0735294 C313.102941,24.0735294 313.397059,24.3676471 313.397059,24.6617647 L313.397059,45.5441176 C313.397059,45.8382353 313.102941,46.0735294 312.808824,46.0735294 L312.338235,46.0735294 C312.220588,46.0735294 311.985294,45.9558824 311.926471,45.8970588 L299.691176,33.6029412 L299.632353,33.6029412 L299.632353,45.1911765 C299.632353,45.4852941 299.397059,45.7794118 299.044118,45.7794118 L295.338235,45.7794118 C295.044118,45.7794118 294.75,45.4852941 294.75,45.1911765 L294.75,24.3088235 Z" id="Fill-31" sketch:type="MSShapeGroup"></path>
                <path d="M337.455882,42.8382353 C339.397059,42.8382353 341.279412,41.3676471 341.867647,40.4264706 L341.867647,37.3088235 C341.573529,37.1323529 340.220588,36.5441176 338.455882,36.5441176 C336.102941,36.5441176 334.514706,37.7794118 334.514706,39.7794118 C334.514706,41.4852941 335.691176,42.8382353 337.455882,42.8382353 M338.044118,33.4852941 C340.102941,33.4852941 341.867647,34.0735294 341.867647,34.0735294 C341.926471,31.0147059 341.338235,29.7794118 338.867647,29.7794118 C336.632353,29.7794118 334.455882,30.3676471 333.397059,30.6617647 C332.808824,30.7794118 332.455882,30.4264706 332.338235,29.8970588 L331.926471,28.0735294 C331.808824,27.4264706 332.102941,27.0735294 332.573529,26.9558824 C332.926471,26.8382353 335.691176,25.8382353 339.279412,25.8382353 C345.514706,25.8382353 346.102941,29.6617647 346.102941,34.5441176 L346.102941,44.9558824 C346.102941,45.4264706 345.691176,45.8970588 345.161765,45.8970588 L343.808824,45.8970588 C343.397059,45.8970588 343.161765,45.7205882 342.985294,45.1911765 L342.514706,43.8970588 C341.455882,44.8970588 339.514706,46.3676471 336.514706,46.3676471 C332.867647,46.3676471 330.220588,43.8970588 330.220588,39.8382353 C330.279412,36.1911765 333.102941,33.4852941 338.044118,33.4852941" id="Fill-33" sketch:type="MSShapeGroup"></path>
            </g>
        </g>
    </g>
</svg>