<?xml version="1.0" encoding="UTF-8" standalone="no"?>
<svg width="100px" height="100px" viewBox="0 0 100 100" version="1.1" xmlns="http://www.w3.org/2000/svg" xmlns:xlink="http://www.w3.org/1999/xlink" xmlns:sketch="http://www.bohemiancoding.com/sketch/ns">
    <!-- Generator: Sketch 3.5.1 (25234) - http://www.bohemiancoding.com/sketch -->
    <title>icon-dribbble</title>
    <desc>Created with Sketch.</desc>
    <defs></defs>
    <g id="Page-1" stroke="none" stroke-width="1" fill="none" fill-rule="evenodd" sketch:type="MSPage">
        <g id="icon-dribbble" sketch:type="MSArtboardGroup" fill="#FFFFFF">
            <g id="Page-1" sketch:type="MSLayerGroup">
                <path d="M70.3180769,79.9126923 C69.9392308,77.7165385 67.97,67.1511538 63.1911538,54.1915385 C74.5103846,52.3338462 84.4719231,55.2607692 85.7103846,55.6453846 C84.1392308,65.6992308 78.4026923,74.4011538 70.3180769,79.9126923 M50.1469231,86.1684615 C41.7911538,86.2030769 34.0776923,83.3857692 27.9296154,78.6338462 C28.5757692,77.305 35.8353846,63.1473077 56.1930769,55.9684615 C56.2719231,55.9396154 56.3526923,55.9146154 56.4315385,55.8876923 C61.5603846,69.0434615 63.7046154,80.0761538 64.2546154,83.2415385 C59.9219231,85.1069231 55.1546154,86.1492308 50.1469231,86.1684615 M13.8565385,50.2011538 C13.8546154,49.83 13.8603846,49.4626923 13.8680769,49.0973077 C15.4526923,49.1223077 32.9661538,49.2780769 50.995,43.8088462 C52.0392308,45.8261538 53.0353846,47.8780769 53.9507692,49.9242308 C53.4738462,50.0626923 52.9988462,50.2069231 52.5276923,50.3607692 C33.9123077,56.4569231 24.0584615,72.905 23.245,74.3107692 C17.4469231,67.9319231 13.8930769,59.4761538 13.8565385,50.2011538 M34.5007692,17.4338462 C35.4584615,18.7376923 41.9546154,27.6530769 47.9873077,38.2665385 C31.0969231,42.8203846 16.2046154,42.8146154 14.5892308,42.7992308 C16.8873077,31.5838462 24.4084615,22.2415385 34.5007692,17.4338462 M49.8526923,13.9415385 C59.0373077,13.905 67.445,17.3126923 73.8507692,22.9453846 C73.2046154,23.8723077 67.7930769,31.2011538 54.9603846,36.0665385 C48.9930769,25.2184615 42.3911538,16.3126923 41.3873077,14.9780769 C44.1026923,14.3146154 46.9373077,13.9530769 49.8526923,13.9415385 M77.8853846,27.1069231 C82.9430769,33.2319231 86.0238462,41.0453846 86.1392308,49.5703846 C84.945,49.3223077 72.9873077,46.9473077 60.9661538,48.5088462 C60.7103846,47.8915385 60.4488462,47.2703846 60.1796154,46.6473077 C59.4219231,44.8896154 58.6084615,43.1434615 57.7603846,41.4242308 C71.1026923,35.9203846 77.1276923,28.1376923 77.8853846,27.1069231 M49.8276923,7.72038462 C26.495,7.81269231 7.58923077,26.8569231 7.68538462,50.1684615 C7.77961538,73.4819231 26.8392308,92.3742308 50.1719231,92.2819231 C73.5046154,92.1876923 92.4103846,73.1434615 92.3161538,49.83 C92.2219231,26.5165385 73.1603846,7.62615385 49.8276923,7.72038462 M50.0007692,99.9992308 C22.3853846,99.9992308 0.000769230769,77.6146154 0.000769230769,49.9992308 C0.000769230769,22.3857692 22.3853846,-0.000769230769 50.0007692,-0.000769230769 C77.6142308,-0.000769230769 100.000769,22.3857692 100.000769,49.9992308 C100.000769,77.6146154 77.6142308,99.9992308 50.0007692,99.9992308" id="Fill-1" sketch:type="MSShapeGroup"></path>
            </g>
        </g>
    </g>
</svg>