<?xml version="1.0" encoding="UTF-8" standalone="no"?>
<svg width="100px" height="100px" viewBox="0 0 100 100" version="1.1" xmlns="http://www.w3.org/2000/svg" xmlns:xlink="http://www.w3.org/1999/xlink" xmlns:sketch="http://www.bohemiancoding.com/sketch/ns">
    <!-- Generator: Sketch 3.5.1 (25234) - http://www.bohemiancoding.com/sketch -->
    <title>icon-github</title>
    <desc>Created with Sketch.</desc>
    <defs>
        <path id="path-1" d="M0,1.26184211 L98.7381579,1.26184211 L98.7381579,100 L0,100"></path>
    </defs>
    <g id="Page-1" stroke="none" stroke-width="1" fill="none" fill-rule="evenodd" sketch:type="MSPage">
        <g id="icon-github" sketch:type="MSArtboardGroup">
            <g id="Page-1" sketch:type="MSLayerGroup">
                <mask id="mask-2" sketch:name="Clip 2" fill="white">
                    <use xlink:href="#path-1"></use>
                </mask>
                <g id="Clip-2"></g>
                <path d="M49.3690789,8.88802632 C26.3138158,8.88802632 7.62565789,27.5775 7.62565789,50.6314474 C7.62565789,69.4130263 20.0296053,85.2959211 37.0914474,90.5393421 C37.0848684,89.5827632 37.0980263,83.8117105 37.0835526,82.8011842 C36.9914474,82.7432895 27.2967105,85.6419737 23.1269737,78.6498684 C22.4638158,77.5143421 21.3861842,73.5196053 18.4782895,71.3090789 C18.3769737,71.2222368 16.2269737,70.1301316 16.0309211,69.0577632 C16.0085526,68.9103947 16.1690789,68.5959211 16.3809211,68.5182895 C16.6019737,68.4367105 20.1361842,66.9919737 24.0756579,71.9669737 C25.2638158,73.6327632 27.9453947,80.0196053 37.3322368,76.0735526 C37.5822368,75.0893421 38.0861842,72.8196053 41.0664474,72.1985526 C27.0888158,70.5367105 20.7085526,65.2314474 18.7256579,53.3393421 C17.4875,45.2314474 19.8664474,38.4919737 23.4401316,35.1656579 C22.8980263,34.4590789 21.1138158,28.5327632 23.8861842,22.2669737 C26.8888158,21.6682895 32.3980263,23.8143421 37.2401316,27.2840789 C44.0717105,24.8288158 56.8927632,25.4682895 61.4809211,27.2840789 C63.6598684,25.4893421 71.4480263,21.2985526 74.7888158,22.2761842 C75.7717105,24.7630263 77.1875,30.7906579 75.2309211,35.1840789 C79.5822368,39.6432895 80.8085526,45.3985526 80.0230263,52.4682895 C79.0625,63.1814474 72.4677632,70.8367105 57.6572368,72.0998684 C61.3875,74.6590789 61.5532895,78.6643421 61.6809211,80.2446053 C61.7138158,83.9301316 61.6375,88.9406579 61.6848684,90.5275 C78.7269737,85.2722368 91.1125,69.3985526 91.1125,50.6314474 C91.1125,27.5775 72.4230263,8.88802632 49.3690789,8.88802632 M49.3690789,99.9998684 C22.1032895,99.9998684 -0.000657894737,77.8959211 -0.000657894737,50.6314474 C-0.000657894737,23.3656579 22.1032895,1.26302632 49.3690789,1.26302632 C76.6348684,1.26302632 98.7375,23.3656579 98.7375,50.6314474 C98.7375,77.8959211 76.6348684,99.9998684 49.3690789,99.9998684" id="Fill-1" fill="#FFFFFF" sketch:type="MSShapeGroup" mask="url(#mask-2)"></path>
            </g>
        </g>
    </g>
</svg>