<?xml version="1.0" encoding="UTF-8" standalone="no"?>
<svg width="100px" height="100px" viewBox="0 0 100 100" version="1.1" xmlns="http://www.w3.org/2000/svg" xmlns:xlink="http://www.w3.org/1999/xlink" xmlns:sketch="http://www.bohemiancoding.com/sketch/ns">
    <!-- Generator: Sketch 3.5.1 (25234) - http://www.bohemiancoding.com/sketch -->
    <title>icon-email</title>
    <desc>Created with Sketch.</desc>
    <defs></defs>
    <g id="Page-1" stroke="none" stroke-width="1" fill="none" fill-rule="evenodd" sketch:type="MSPage">
        <g id="icon-email" sketch:type="MSArtboardGroup" fill="#FFFFFF">
            <path d="M33.3769634,54.9267016 C33.3769634,46.2879581 40.1832461,35.6858639 49.6073298,35.6858639 C55.2356021,35.6858639 59.6858639,40.3979058 59.6858639,46.8115183 C59.6858639,55.8429319 53.0104712,66.5759162 43.5863874,66.5759162 C37.565445,66.5759162 33.3769634,61.8638743 33.3769634,54.9267016 L33.3769634,54.9267016 Z M76.7015707,25.3455497 L65.9685864,25.3455497 L63.8743455,32.4136126 C60.8638743,25.6073298 54.1884817,23.2513089 48.5602094,23.2513089 C31.2827225,23.2513089 20.026178,40.1361257 20.026178,56.6282723 C20.026178,68.8010471 29.3193717,79.0104712 40.5759162,79.0104712 C46.0732984,79.0104712 51.5706806,76.6544503 54.7120419,71.4188482 L54.973822,71.4188482 C55.2356021,75.7382199 59.0314136,78.8795812 64.5287958,78.8795812 C72.9057592,78.8795812 95.2879581,67.8848168 95.2879581,40.921466 C95.2879581,16.8376963 73.5602094,1 49.7382199,1 C22.513089,1 0,22.3350785 0,49.9528796 C0,77.9633508 22.513089,98.9057592 50.3926702,98.9057592 C66.7539267,98.9057592 81.4136126,91.1832461 90.3141361,77.7015707 L79.3193717,77.7015707 C72.513089,84.5078534 62.1727749,88.434555 51.1780105,88.434555 C28.6649215,88.434555 12.565445,73.1204188 12.565445,50.2146597 C12.565445,28.0942408 27.0942408,11.4712042 49.6073298,11.4712042 C69.5026178,11.4712042 85.078534,22.8586387 85.078534,43.6701571 C85.078534,57.6753927 77.0942408,67.7539267 69.6335079,67.7539267 C66.3612565,67.7539267 67.408377,62.6492147 68.4554974,59.1151832 L76.7015707,25.3455497 Z" id="@" sketch:type="MSShapeGroup"></path>
        </g>
    </g>
</svg>