<?xml version="1.0" encoding="UTF-8" standalone="no"?>
<svg width="100px" height="82px" viewBox="0 0 100 82" version="1.1" xmlns="http://www.w3.org/2000/svg" xmlns:xlink="http://www.w3.org/1999/xlink" xmlns:sketch="http://www.bohemiancoding.com/sketch/ns">
    <!-- Generator: Sketch 3.5.1 (25234) - http://www.bohemiancoding.com/sketch -->
    <title>icon-twitter</title>
    <desc>Created with Sketch.</desc>
    <defs>
        <path id="path-1" d="M0,1.47575758 L98.8606061,1.47575758 L98.8606061,81.8181818 L0,81.8181818"></path>
    </defs>
    <g id="Page-1" stroke="none" stroke-width="1" fill="none" fill-rule="evenodd" sketch:type="MSPage">
        <g id="icon-twitter" sketch:type="MSArtboardGroup">
            <g id="Page-1" sketch:type="MSLayerGroup">
                <mask id="mask-2" sketch:name="Clip 2" fill="white">
                    <use xlink:href="#path-1"></use>
                </mask>
                <g id="Clip-2"></g>
                <path d="M98.8607576,10.9856061 C95.2243939,12.5992424 91.315303,13.6901515 87.2122727,14.1795455 C91.3986364,11.6689394 94.615303,7.69469697 96.1304545,2.95833333 C92.2107576,5.28257576 87.8698485,6.97045455 83.2501515,7.87954545 C79.5501515,3.93863636 74.2789394,1.475 68.4456061,1.475 C57.2440909,1.475 48.1622727,10.5568182 48.1622727,21.7568182 C48.1622727,23.3462121 48.3410606,24.894697 48.6880303,26.3795455 C31.8319697,25.5340909 16.885,17.4583333 6.8819697,5.18712121 C5.13651515,8.18257576 4.135,11.6674242 4.135,15.3840909 C4.135,22.4204545 7.71681818,28.6295455 13.1592424,32.2659091 C9.835,32.1613636 6.70772727,31.2477273 3.97287879,29.7295455 C3.96984848,29.8143939 3.96984848,29.8992424 3.96984848,29.9856061 C3.96984848,39.8113636 10.9622727,48.0098485 20.2395455,49.8719697 C18.5380303,50.3371212 16.7471212,50.5840909 14.8971212,50.5840909 C13.5910606,50.5840909 12.3198485,50.4568182 11.0804545,50.2204545 C13.6607576,58.2780303 21.1531818,64.1431818 30.0274242,64.305303 C23.0865152,69.7462121 14.3410606,72.9886364 4.8380303,72.9886364 C3.20015152,72.9886364 1.58651515,72.8916667 0.000151515152,72.705303 C8.97590909,78.4598485 19.6365152,81.8174242 31.0895455,81.8174242 C68.3986364,81.8174242 88.7986364,50.9128788 88.7986364,24.1098485 C88.7986364,23.2295455 88.7789394,22.355303 88.7395455,21.4856061 C92.704697,18.625 96.1425758,15.0537879 98.8607576,10.9856061" id="Fill-1" fill="#FFFFFF" sketch:type="MSShapeGroup" mask="url(#mask-2)"></path>
            </g>
        </g>
    </g>
</svg>