<?xml version="1.0" encoding="UTF-8" standalone="no"?>
<svg width="230px" height="113px" viewBox="0 0 230 113" version="1.1" xmlns="http://www.w3.org/2000/svg" xmlns:xlink="http://www.w3.org/1999/xlink" xmlns:sketch="http://www.bohemiancoding.com/sketch/ns">
    <!-- Generator: Sketch 3.5.1 (25234) - http://www.bohemiancoding.com/sketch -->
    <title>logo-cdx</title>
    <desc>Created with Sketch.</desc>
    <defs>
        <path id="path-1" d="M0,0.92372549 L320.282941,0.92372549 L320.282941,70 L0,70 L0,0.92372549 Z"></path>
    </defs>
    <g id="Page-1" stroke="none" stroke-width="1" fill="none" fill-rule="evenodd" sketch:type="MSPage">
        <g id="logo-cdx" sketch:type="MSArtboardGroup">
            <g id="Group" sketch:type="MSLayerGroup" transform="translate(2.000000, 0.000000)">
                <g id="Page-1" transform="translate(82.000000, 0.000000)">
                    <g id="Group-3">
                        <mask id="mask-2" sketch:name="Clip 2" fill="white">
                            <use xlink:href="#path-1"></use>
                        </mask>
                        <g id="Clip-2"></g>
                        <path d="M42.9176863,43.8414118 C38.289451,48.4696471 30.7857255,48.4696471 26.1574902,43.8414118 C21.5292549,39.2131765 21.5292549,31.709451 26.1574902,27.0812157 C30.7857255,22.4529804 38.289451,22.4529804 42.9176863,27.0812157 L51.2984706,35.462 L42.9176863,43.8414118 Z M51.2984706,35.462 L67.3408235,19.4196471 L58.9600392,11.0402353 C45.472,-2.44917647 23.6031765,-2.44917647 10.1165098,11.0402353 C-3.37152941,24.526902 -3.37152941,46.3957255 10.1165098,59.8837647 C23.6031765,73.3718039 45.472,73.3718039 58.9600392,59.8837647 L67.3408235,51.5043529 L51.2984706,35.462 Z" id="Fill-1" fill="#FFFFFF" sketch:type="MSShapeGroup" mask="url(#mask-2)"></path>
                    </g>
                </g>
                <path d="M0.477926328,101.032 C0.477926328,106.772 4.62192633,111.336 10.4459263,111.336 C15.2899263,111.336 17.9779263,108.284 17.9779263,108.284 L16.8579263,106.912 C16.8579263,106.912 14.4499263,109.544 10.4739263,109.544 C5.79792633,109.544 2.49392633,105.708 2.49392633,101.004 C2.49392633,96.356 5.79792633,92.772 10.4179263,92.772 C14.1139263,92.772 16.4099263,94.956 16.4099263,94.956 L17.4459263,93.528 C17.4459263,93.528 15.0659263,90.98 10.3619263,90.98 C4.73392633,90.98 0.477926328,95.32 0.477926328,101.032 L0.477926328,101.032 Z M22.9992596,101.032 C22.9992596,106.8 27.4512596,111.336 33.0232596,111.336 C38.5952596,111.336 43.0472596,106.8 43.0472596,101.032 C43.0472596,95.376 38.5952596,90.98 33.0232596,90.98 C27.4512596,90.98 22.9992596,95.376 22.9992596,101.032 L22.9992596,101.032 Z M25.0152596,101.032 C25.0152596,96.328 28.5712596,92.772 33.0232596,92.772 C37.4472596,92.772 41.0312596,96.328 41.0312596,101.032 C41.0312596,105.848 37.4472596,109.544 33.0232596,109.544 C28.5712596,109.544 25.0152596,105.848 25.0152596,101.032 L25.0152596,101.032 Z M49.1325928,111 L51.0645928,111 L52.1565928,97.224 C52.2405928,96.16 52.2125928,94.424 52.2125928,94.424 L52.2685928,94.424 C52.2685928,94.424 52.8845928,96.244 53.3325928,97.224 L57.9525928,107.332 L59.7725928,107.332 L64.3925928,97.224 C64.8405928,96.216 65.4285928,94.48 65.4285928,94.48 L65.4845928,94.48 C65.4845928,94.48 65.4565928,96.16 65.5405928,97.224 L66.6325928,111 L68.5645928,111 L66.9965928,91.316 L65.0085928,91.316 L59.8565928,102.88 C59.4085928,103.888 58.8765928,105.288 58.8765928,105.288 L58.8205928,105.288 C58.8205928,105.288 58.3165928,103.888 57.8685928,102.88 L52.7165928,91.316 L50.7005928,91.316 L49.1325928,111 Z M75.9939261,111 L77.9259261,111 L77.9259261,91.316 L75.9939261,91.316 L75.9939261,111 Z M85.9712593,111 L87.9032593,111 L87.9032593,96.832 C87.9032593,95.796 87.7352593,94.172 87.7352593,94.172 L87.7912593,94.172 C87.7912593,94.172 88.7432593,95.852 89.4152593,96.832 L99.4672593,111 L101.343259,111 L101.343259,91.316 L99.4112593,91.316 L99.4112593,105.484 C99.4112593,106.52 99.5792593,108.144 99.5792593,108.144 L99.5232593,108.144 C99.5232593,108.144 98.5712593,106.464 97.8992593,105.484 L87.8472593,91.316 L85.9712593,91.316 L85.9712593,111 Z M108.072593,101.144 C108.072593,106.996 112.328593,111.336 117.704593,111.336 C121.848593,111.336 124.116593,108.676 124.116593,108.676 L124.172593,108.676 C124.172593,108.676 124.144593,109.096 124.144593,109.516 L124.144593,111 L125.936593,111 L125.936593,101.592 L120.728593,101.592 L120.728593,103.328 L124.088593,103.328 L124.088593,106.66 C124.088593,106.66 121.736593,109.544 117.900593,109.544 C113.420593,109.544 110.088593,105.96 110.088593,101.116 C110.088593,96.44 113.308593,92.772 118.068593,92.772 C121.652593,92.772 123.948593,94.732 123.948593,94.732 L124.984593,93.276 C124.984593,93.276 122.548593,90.98 117.984593,90.98 C112.328593,90.98 108.072593,95.46 108.072593,101.144 L108.072593,101.144 Z M141.355259,108.816 C141.355259,108.816 143.567259,111.336 147.599259,111.336 C151.295259,111.336 153.563259,108.956 153.563259,106.016 C153.563259,99.548 143.735259,100.892 143.735259,96.216 C143.735259,94.48 145.359259,92.828 147.879259,92.828 C150.455259,92.828 152.191259,94.508 152.191259,94.508 L153.143259,92.884 C153.143259,92.884 151.295259,90.98 147.879259,90.98 C144.239259,90.98 141.747259,93.444 141.747259,96.272 C141.747259,102.376 151.575259,101.116 151.575259,106.072 C151.575259,108.2 149.811259,109.488 147.655259,109.488 C144.547259,109.488 142.503259,107.332 142.503259,107.332 L141.355259,108.816 Z M158.864592,101.032 C158.864592,106.8 163.316592,111.336 168.888592,111.336 C174.460592,111.336 178.912592,106.8 178.912592,101.032 C178.912592,95.376 174.460592,90.98 168.888592,90.98 C163.316592,90.98 158.864592,95.376 158.864592,101.032 L158.864592,101.032 Z M160.880592,101.032 C160.880592,96.328 164.436592,92.772 168.888592,92.772 C173.312592,92.772 176.896592,96.328 176.896592,101.032 C176.896592,105.848 173.312592,109.544 168.888592,109.544 C164.436592,109.544 160.880592,105.848 160.880592,101.032 L160.880592,101.032 Z M184.269926,101.032 C184.269926,106.8 188.721926,111.336 194.293926,111.336 C199.865926,111.336 204.317926,106.8 204.317926,101.032 C204.317926,95.376 199.865926,90.98 194.293926,90.98 C188.721926,90.98 184.269926,95.376 184.269926,101.032 L184.269926,101.032 Z M186.285926,101.032 C186.285926,96.328 189.841926,92.772 194.293926,92.772 C198.717926,92.772 202.301926,96.328 202.301926,101.032 C202.301926,105.848 198.717926,109.544 194.293926,109.544 C189.841926,109.544 186.285926,105.848 186.285926,101.032 L186.285926,101.032 Z M211.019259,111 L212.951259,111 L212.951259,96.832 C212.951259,95.796 212.783259,94.172 212.783259,94.172 L212.839259,94.172 C212.839259,94.172 213.791259,95.852 214.463259,96.832 L224.515259,111 L226.391259,111 L226.391259,91.316 L224.459259,91.316 L224.459259,105.484 C224.459259,106.52 224.627259,108.144 224.627259,108.144 L224.571259,108.144 C224.571259,108.144 223.619259,106.464 222.947259,105.484 L212.895259,91.316 L211.019259,91.316 L211.019259,111 Z" id="COMING-SOON" fill="#FFFFFF" sketch:type="MSShapeGroup"></path>
            </g>
        </g>
    </g>
</svg>