<?xml version="1.0" encoding="UTF-8" standalone="no"?>
<svg width="290px" height="60px" viewBox="0 0 290 60" version="1.1" xmlns="http://www.w3.org/2000/svg" xmlns:xlink="http://www.w3.org/1999/xlink" xmlns:sketch="http://www.bohemiancoding.com/sketch/ns">
    <!-- Generator: Sketch 3.5.1 (25234) - http://www.bohemiancoding.com/sketch -->
    <title>logo-openplay</title>
    <desc>Created with Sketch.</desc>
    <defs>
        <path id="path-1" d="M0,0 L289.213483,0 L289.213483,60 L0,60 L0,0 Z"></path>
    </defs>
    <g id="Page-1" stroke="none" stroke-width="1" fill="none" fill-rule="evenodd" sketch:type="MSPage">
        <g id="logo-openplay" sketch:type="MSArtboardGroup">
            <g sketch:type="MSLayerGroup">
                <path d="M196.776876,17.5988764 L196.776876,51.9370787 L202.812607,51.9370787 L202.812607,40.8997753 L209.633056,40.8997753 C217.192382,40.8997753 223.375079,36.8770787 223.375079,29.1269663 C223.375079,22.1116854 218.318899,17.5988764 210.320697,17.5988764 L196.776876,17.5988764 Z M202.812607,23.0925843 L209.82991,23.0925843 C214.345416,23.0925843 217.240921,25.2020225 217.240921,29.2739326 C217.240921,32.9534831 214.394629,35.4552809 209.82991,35.4552809 L202.812607,35.4552809 L202.812607,23.0925843 Z" id="Fill-1" fill="#FEFEFE" sketch:type="MSShapeGroup"></path>
                <mask id="mask-2" sketch:name="Clip 4" fill="white">
                    <use xlink:href="#path-1"></use>
                </mask>
                <g id="Clip-4"></g>
                <path d="M226.873483,51.9370787 L232.811461,51.9370787 L232.811461,16.1265169 L226.873483,16.1265169 L226.873483,51.9370787 Z" id="Fill-3" fill="#FEFEFE" sketch:type="MSShapeGroup" mask="url(#mask-2)"></path>
                <path d="M240.077056,27.8027191 L241.695708,32.5609213 C244.051888,31.5800225 246.210539,30.9415955 249.107393,30.9415955 C253.229191,30.9415955 255.485596,32.9047416 255.485596,36.4858652 L255.485596,37.1222697 C253.47391,36.4858652 251.462225,36.043618 248.321326,36.043618 C242.283573,36.043618 237.818629,38.790809 237.818629,44.3829438 L237.818629,44.4813708 C237.818629,49.6824944 242.138629,52.4775506 247.045146,52.4775506 C250.970764,52.4775506 253.670764,50.859573 255.435708,48.7481124 L255.435708,51.9368764 L261.327169,51.9368764 L261.327169,36.583618 C261.327169,29.6660899 257.595708,25.6433933 249.939978,25.6433933 C245.719079,25.6433933 242.922674,26.5272135 240.077056,27.8027191 M243.708067,44.1860899 L243.708067,44.0890112 C243.708067,41.439573 245.916607,39.9200225 249.645371,39.9200225 C251.953011,39.9200225 254.062449,40.3609213 255.583348,40.9501348 L255.583348,42.5681124 C255.583348,45.8060899 252.640652,48.0139551 248.713011,48.0139551 C245.916607,48.0139551 243.708067,46.6406966 243.708067,44.1860899" id="Fill-5" fill="#FEFEFE" sketch:type="MSShapeGroup" mask="url(#mask-2)"></path>
                <path d="M283.03018,26.0363596 L276.306135,45.2666966 L268.945011,26.0363596 L262.615348,26.0363596 L273.411303,51.936809 C272.429056,54.1945618 271.399618,54.9307416 269.730404,54.9307416 C268.504787,54.9307416 267.327034,54.538382 266.245685,53.9498427 L264.233326,58.3648989 C266.050854,59.3451236 267.865685,59.9336629 270.369506,59.9336629 C274.540517,59.9336629 276.847483,57.9718652 278.909056,52.6743371 L289.213551,26.0363596 L283.03018,26.0363596 Z" id="Fill-6" fill="#FEFEFE" sketch:type="MSShapeGroup" mask="url(#mask-2)"></path>
                <path d="M22.9384719,21.6408539 C21.4479101,19.6116404 19.0681348,18.2801798 16.3533034,18.2801798 C11.8377978,18.2801798 8.17510112,21.9395056 8.17510112,26.4543371 C8.17510112,26.8271461 8.23847191,27.1844494 8.28701124,27.5464719 C3.4148764,29.6222022 0.000269662921,34.729618 0.000269662921,40.3588315 C0.000269662921,47.8817528 6.10408989,54.2653483 13.6263371,54.2653483 L29.9820674,54.2653483 L35.4353258,54.2653483 L51.7876854,54.2653483 C59.3153258,54.2653483 65.4184719,47.8817528 65.4184719,40.3588315 C65.4184719,34.772764 62.0476854,29.702427 57.237573,27.5997303 C57.1121798,17.9174831 49.2413933,10.1053483 39.5240899,10.1053483 C31.9202697,10.1053483 25.4470112,14.9093933 22.9384719,21.6408539 M28.8737528,43.9264719 L28.8737528,27.6233258 C28.8737528,26.5756854 29.4582472,26.1523146 30.3649888,26.6761348 L44.4137528,34.8280449 C45.3204944,35.3498427 45.2449888,36.2019775 44.3368989,36.7237753 L30.3636404,44.8743371 C30.1000449,45.0260225 29.8634157,45.0988315 29.6618427,45.0988315 C29.1670112,45.0995056 28.8737528,44.6693933 28.8737528,43.9264719" id="Fill-7" fill="#FEFEFE" sketch:type="MSShapeGroup" mask="url(#mask-2)"></path>
                <path d="M71.7009438,35.0298202 C71.7009438,44.7424045 79.0620674,52.7399326 89.6133034,52.7399326 C100.163865,52.7399326 107.62409,44.6453258 107.62409,34.9334157 C107.62409,25.2181348 100.262292,17.2219551 89.710382,17.2219551 C79.1611685,17.2219551 71.7009438,25.3165618 71.7009438,35.0298202 M78.0312809,34.9334157 C78.0312809,28.2107191 82.7921798,22.7668989 89.6133034,22.7668989 C96.434427,22.7668989 101.293753,28.3091461 101.293753,35.0298202 C101.293753,41.7511685 96.5335281,47.1963371 89.710382,47.1963371 C82.8906067,47.1963371 78.0312809,41.6513933 78.0312809,34.9334157" id="Fill-8" fill="#FEFEFE" sketch:type="MSShapeGroup" mask="url(#mask-2)"></path>
                <path d="M116.483056,30.5655506 L116.483056,26.2495955 L110.545079,26.2495955 L110.545079,59.9999326 L116.483056,59.9999326 L116.483056,48.1280225 C118.298562,50.5313933 120.998562,52.6900449 125.267326,52.6900449 C131.450022,52.6900449 137.339461,47.8334157 137.339461,39.2008315 C137.339461,30.5655506 131.401483,25.711618 125.267326,25.711618 C121.09564,25.711618 118.397663,27.8682472 116.483056,30.5655506 M116.335416,39.2008315 C116.335416,34.1473483 119.869348,30.8615056 123.893393,30.8615056 C127.917438,30.8615056 131.30373,34.0981348 131.30373,39.2008315 C131.30373,44.3507191 127.967326,47.5401573 123.893393,47.5401573 C119.869348,47.5401573 116.335416,44.2536404 116.335416,39.2008315" id="Fill-9" fill="#FEFEFE" sketch:type="MSShapeGroup" mask="url(#mask-2)"></path>
                <path d="M139.661191,39.2486292 C139.661191,47.2953708 145.452202,52.7398652 152.960292,52.7398652 C157.721191,52.7398652 161.105461,50.8272809 163.560067,47.8839101 L160.076022,44.793573 C158.015124,46.8039101 155.954225,47.8839101 153.059393,47.8839101 C149.23018,47.8839101 146.286809,45.5277303 145.599843,41.3095281 L164.640067,41.3095281 C164.688607,40.7209888 164.738494,40.2308764 164.738494,39.6895281 C164.738494,32.184809 160.567483,25.7115506 152.323213,25.7115506 C144.912202,25.7115506 139.661191,31.7924494 139.661191,39.2486292 M152.274,30.5654831 C156.198944,30.5654831 158.456697,33.5594157 158.84973,37.3852584 L145.550629,37.3852584 C146.089281,33.3639101 148.64164,30.5654831 152.274,30.5654831" id="Fill-10" fill="#FEFEFE" sketch:type="MSShapeGroup" mask="url(#mask-2)"></path>
                <path d="M174.319685,30.2715506 L174.319685,26.2495281 L168.383056,26.2495281 L168.383056,52.1499775 L174.319685,52.1499775 L174.319685,37.5315506 C174.319685,33.5088539 176.724404,31.1061573 180.161933,31.1061573 C183.693169,31.1061573 185.706876,33.4111011 185.706876,37.4337978 L185.706876,52.1499775 L191.64418,52.1499775 L191.64418,35.6681798 C191.64418,29.6337978 188.257888,25.7115506 182.418337,25.7115506 C178.394966,25.7115506 175.990921,27.8182921 174.319685,30.2715506" id="Fill-11" fill="#FEFEFE" sketch:type="MSShapeGroup" mask="url(#mask-2)"></path>
                <path d="M67.083236,16.4526742 C66.3018876,12.0315506 64.4088539,8.30548315 61.5962697,5.49626966 C58.7884045,2.68705618 55.0623371,0.796719101 50.6385169,0.0133483146 C50.1167191,-0.0796853933 49.4466067,0.333573034 49.1398652,0.926831461 C48.8290787,1.52076404 49.0009888,2.07761798 49.5173933,2.16795506 L49.5126742,2.17267416 C53.6641348,2.90413483 57.1434607,4.68121348 59.7773933,7.31379775 C62.4133483,9.94840449 64.1924494,13.4290787 64.9218876,17.5771685 C65.0128989,18.0949213 65.5711011,18.264809 66.1711011,17.952 C66.3349213,17.8643596 66.4825618,17.7551461 66.6086292,17.6284045 C66.9511011,17.2872809 67.1479551,16.8295281 67.083236,16.4526742" id="Fill-12" fill="#FEFEFE" sketch:type="MSShapeGroup" mask="url(#mask-2)"></path>
                <path d="M56.525191,10.5465169 C54.8654157,8.88741573 52.805191,7.62876404 50.4146292,6.87303371 C49.9312584,6.72 49.2469888,7.06988764 48.8883371,7.64831461 C48.5249663,8.22876404 48.6220449,8.82741573 49.1033933,8.97977528 C51.2910337,9.67685393 53.1847416,10.8310112 54.712382,12.3579775 C56.2487865,13.8923596 57.4049663,15.8062921 58.1141798,18.0094382 C58.2685618,18.4921348 58.8678876,18.5878652 59.4496854,18.2224719 C59.5710337,18.1483146 59.6802472,18.0606742 59.7766517,17.9629213 C60.1541798,17.5853933 60.3490112,17.074382 60.2276629,16.6894382 C59.4496854,14.2968539 58.1944045,12.2157303 56.525191,10.5465169" id="Fill-13" fill="#FEFEFE" sketch:type="MSShapeGroup" mask="url(#mask-2)"></path>
            </g>
        </g>
    </g>
</svg>