<svg width="355" height="55" viewBox="0 0 579 104" fill="none" xmlns="http://www.w3.org/2000/svg">
<path d="M131.908 85.3126C129.038 79.8667 127.603 73.7031 127.603 66.8221C127.603 59.941 129.038 53.7775 131.908 48.3315C134.815 42.8855 138.881 38.6354 144.107 35.5812C149.332 32.5271 155.275 31 161.935 31C170.693 31 177.721 33.3366 183.02 38.0099C188.355 42.6831 191.649 48.7546 192.9 56.2245H170.987C170.325 54.311 169.221 52.8207 167.675 51.7536C166.13 50.6497 164.216 50.0977 161.935 50.0977C158.071 50.0977 155.054 51.6616 152.883 54.7894C150.712 57.8803 149.626 61.8912 149.626 66.8221C149.626 71.7161 150.712 75.727 152.883 78.8547C155.091 81.9825 158.108 83.5464 161.935 83.5464C164.216 83.5464 166.13 83.0128 167.675 81.9457C169.257 80.8418 170.361 79.3147 170.987 77.3645H192.9C192.311 80.9706 191.207 84.3007 189.588 87.3549C188.006 90.3723 185.945 93.0401 183.406 95.3583C180.904 97.6397 177.813 99.4244 174.133 100.712C170.453 102 166.387 102.644 161.935 102.644C155.275 102.644 149.332 101.117 144.107 98.0629C138.881 95.0087 134.815 90.7586 131.908 85.3126Z" fill="white"/>
<path d="M192.264 101.54L218.482 32.1591H241.333L267.551 101.54H245.417L241.774 91.4946H217.378L213.735 101.54H192.264ZM223.781 73.7215H235.316L229.576 57.77L223.781 73.7215Z" fill="white"/>
<path d="M272.435 101.54V32.1591H292.857L315.708 64.4486V32.1591H336.848V101.54H318.854L293.575 66.8221V101.54H272.435Z" fill="white"/>
<path d="M344.823 72.8384V32.1591H366.68V70.9066C366.68 74.7335 367.563 77.7324 369.33 79.9035C371.133 82.0377 373.525 83.1048 376.505 83.1048C379.486 83.1048 381.859 82.0377 383.625 79.9035C385.428 77.7324 386.33 74.7335 386.33 70.9066V32.1591H408.132V72.8384C408.132 82.2953 405.317 89.6363 399.687 94.8615C394.057 100.05 386.33 102.644 376.505 102.644C366.717 102.644 358.99 100.032 353.323 94.8063C347.656 89.5811 344.823 82.2585 344.823 72.8384Z" fill="white"/>
<path d="M414.065 50.7601V32.1591H476.878V50.7601H456.455V101.54H434.487V50.7601H414.065Z" fill="white"/>
<path d="M483.362 101.54V32.1591H505.275V101.54H483.362Z" fill="white"/>
<path d="M513.856 101.54V32.1591H534.279L557.13 64.4486V32.1591H578.27V101.54H560.276L534.996 66.8221V101.54H513.856Z" fill="white"/>
<path fill-rule="evenodd" clip-rule="evenodd" d="M8.77564 52.031C-2.92521 63.7318 -2.92521 82.7027 8.77564 94.4035C20.4765 106.104 39.4473 106.104 51.1482 94.4035L94.4035 51.1482C106.104 39.4473 106.104 20.4765 94.4035 8.77565C82.7027 -2.9252 63.7318 -2.92522 52.031 8.77563L8.77564 52.031ZM86.1113 43.6649C93.4429 36.3333 93.4429 24.4464 86.1113 17.1148C78.7797 9.78321 66.8928 9.78321 59.5612 17.1148C52.2296 24.4464 52.2296 36.3333 59.5612 43.6649C66.8928 50.9965 78.7797 50.9965 86.1113 43.6649Z" fill="#0054FD"/>
</svg>
