<?xml version="1.0" encoding="UTF-8"?>
<svg width="218px" height="100px" viewBox="0 0 218 100" version="1.1" xmlns="http://www.w3.org/2000/svg" xmlns:xlink="http://www.w3.org/1999/xlink">
    <!-- Generator: Sketch 47.1 (45422) - http://www.bohemiancoding.com/sketch -->
    <title>logo-intune</title>
    <desc>Created with Sketch.</desc>
    <defs>
        <polygon id="path-1" points="0 98 185.684211 98 185.684211 0 1.83322465e-14 0"></polygon>
        <polygon id="path-3" points="-28.3684211 98 185.684211 98 185.684211 0 -28.3684211 0"></polygon>
    </defs>
    <g id="Page-1" stroke="none" stroke-width="1" fill="none" fill-rule="evenodd">
        <g id="logo-intune">
            <g id="Group" transform="translate(31.000000, 1.000000)">
                <path d="M128.947368,42.9824561 C134.292347,42.9824561 136.543264,46.3857435 136.684211,49.8596491 L121.210526,49.8596491 C121.421523,46.6690672 124.094435,42.9824561 128.947368,42.9824561 Z" id="Fill-1" fill="#FEFEFE"></path>
                <mask id="mask-2" fill="white">
                    <use xlink:href="#path-1"></use>
                </mask>
                <g id="Clip-4"></g>
                <path d="M145.948242,56.7024825 L120.720666,56.7024825 C120.935669,61.3740771 124.877961,64.752079 129.608024,64.752079 C134.050844,64.752079 136.488116,62.5236499 137.634511,59.3621092 L145.589617,61.7336959 C143.798213,67.8420409 138.208139,72.9448331 129.535783,72.9448331 C119.860655,72.9448331 111.332781,65.9732305 111.332781,54.0437182 C111.332781,42.7610021 119.645652,35.4306432 128.675772,35.4306432 C139.569537,35.4306432 146.091004,42.4013834 146.091004,53.7565406 C146.091004,55.1217121 145.948242,56.5593249 145.948242,56.7024825 L145.948242,56.7024825 Z M109.358195,71.8668391 L99.8266882,71.8668391 L99.8266882,51.2409339 C99.8266882,47.2885768 97.8916624,44.1977525 93.3043614,44.1977525 C89.1479261,44.1977525 86.7115137,47.4317344 86.7115137,51.5281114 L86.7115137,71.8668391 L77.1791469,71.8668391 L77.1791469,36.5086372 L86.4242699,36.5086372 L86.4242699,40.8921918 C88.5742985,37.2270123 92.8029747,35.5738008 96.6016453,35.5738008 C105.344522,35.5738008 109.358195,41.8261658 109.358195,49.5877223 L109.358195,71.8668391 Z M63.3088823,71.8668391 C63.1652604,71.1476016 63.0216385,69.4952524 63.0216385,68.0576397 C61.0866128,71.3632004 57.0015584,72.8008131 53.2751288,72.8008131 C44.7463954,72.8008131 39.8735705,66.5484481 39.8735705,58.8584704 L39.8735705,36.5086372 L49.4050773,36.5086372 L49.4050773,56.9180813 C49.4050773,60.8713007 51.411484,64.0328414 55.8551632,64.0328414 C60.0838394,64.0328414 62.5202518,61.1584783 62.5202518,57.0621013 L62.5202518,36.5086372 L72.0517586,36.5086372 L72.0517586,65.4704542 C72.0517586,68.2016597 72.2667615,70.6448252 72.4103834,71.8668391 L63.3088823,71.8668391 Z M32.5763734,0 L23.9521787,25.9442963 L29.8724975,25.9442963 L29.8724975,36.5086372 L36.9675919,36.5086372 L36.9675919,44.9885689 L29.8724975,44.9885689 L29.8724975,59.7933068 C29.8724975,62.8832687 31.3052765,63.8896838 34.0289328,63.8896838 C35.175328,63.8896838 36.4653452,63.7456638 36.9675919,63.6016438 L36.9675919,71.5072204 C36.1075804,71.8668391 34.3875575,72.3696155 31.5925203,72.3696155 C24.7124288,72.3696155 20.4123716,68.2732385 20.4123716,61.4456559 L20.4123716,44.9885689 L17.6216345,44.9885689 L0,98 L153.107837,98 L185.684211,0 L32.5763734,0 Z" id="Fill-3" fill="#FEFEFE" mask="url(#mask-2)"></path>
                <mask id="mask-4" fill="white">
                    <use xlink:href="#path-3"></use>
                </mask>
                <g id="Clip-7"></g>
                <path d="M-27.2216491,71.3508772 L-17.6941579,71.3508772 L-17.6941579,36.2971964 L-27.2216491,36.2971964 L-27.2216491,71.3508772 Z M-28.3684211,24.8260931 C-28.3684211,27.9612601 -25.7172632,30.5971259 -22.4935789,30.5971259 C-19.1985439,30.5971259 -16.6195965,27.9612601 -16.6195965,24.8260931 C-16.6195965,21.5490015 -19.1985439,18.9122807 -22.4935789,18.9122807 C-25.7172632,18.9122807 -28.3684211,21.5490015 -28.3684211,24.8260931 L-28.3684211,24.8260931 Z M-2.0055614,51.187316 C-2.0055614,47.1262189 0.429824561,43.9200895 4.58536842,43.9200895 C9.16987719,43.9200895 11.1040877,46.9842942 11.1040877,50.9026118 L11.1040877,71.3508772 L20.6315789,71.3508772 L20.6315789,49.2636384 C20.6315789,41.568928 16.6204561,35.3704113 7.88040351,35.3704113 C4.08333333,35.3704113 -0.142701754,37.0093846 -2.29182456,40.6429979 L-2.29182456,36.2971964 L-11.5330526,36.2971964 L-11.5330526,71.3508772 L-2.0055614,71.3508772 L-2.0055614,51.187316 Z" id="Fill-6" fill="#FEFEFE" mask="url(#mask-4)"></path>
            </g>
        </g>
    </g>
</svg>